<svg width="80" height="24" viewBox="0 0 80 24" fill="none" xmlns="http://www.w3.org/2000/svg">
<path d="M12.0565 5.7553C12.2456 5.69771 12.4057 5.64356 12.5694 5.59979C13.7841 5.27265 15.0185 5.07106 16.2772 5.00713C17.1502 4.96279 18.0152 4.98812 18.8645 5.20238C19.179 5.28187 19.4947 5.38266 19.7873 5.52146C20.6198 5.91887 21.0956 6.61003 21.3292 7.48147C21.4639 7.98481 21.5125 8.49919 21.5119 9.01927V18.3808L17.8654 18.412C17.6781 18.4125 17.5422 18.3394 17.4295 18.1925C17.2543 17.9644 17.0675 17.745 16.886 17.5221C16.8594 17.5129 16.8328 17.5037 16.8062 17.4945C16.7594 17.5613 16.7207 17.6356 16.6651 17.6943C16.0991 18.2956 15.3966 18.6066 14.5733 18.6453C14.0749 18.6688 13.5794 18.6493 13.0921 18.5237C12.108 18.2697 11.4332 17.6701 11.0488 16.7377C10.8638 16.289 10.758 15.8208 10.7106 15.3409C10.64 14.6245 10.6371 13.9097 10.7753 13.1973C11.0753 11.6514 11.9779 10.6458 13.4823 10.1712C14.1824 9.95059 14.9029 9.86935 15.6343 9.86419C15.9239 9.86245 16.2136 9.86473 16.5032 9.86305C16.5906 9.86245 16.6778 9.85381 16.7941 9.84691C16.8004 9.52549 16.8438 9.21739 16.7478 8.91613C16.6761 8.69095 16.4992 8.55961 16.276 8.52163C16.0291 8.47957 15.7747 8.44675 15.5255 8.45599C14.6091 8.48935 13.7159 8.68057 12.8272 8.89255C12.6469 8.93575 12.4676 8.98297 12.2872 9.02557C12.2311 9.03883 12.1727 9.04111 12.0895 9.05209L12.0565 5.7553ZM16.8073 12.0891C16.5489 12.0344 16.3235 12.0736 16.0985 12.1098C15.6897 12.1755 15.4319 12.4093 15.3232 12.8062C15.3018 12.8845 15.285 12.964 15.27 13.044C15.1572 13.6304 15.1602 14.2201 15.2353 14.8093C15.2573 14.9827 15.3047 15.159 15.3746 15.3196C15.5244 15.6646 15.847 15.838 16.2211 15.7983C16.302 15.7896 16.383 15.7758 16.4622 15.7568C16.7836 15.6802 16.8068 15.652 16.8073 15.3237C16.8079 14.3187 16.8079 13.3136 16.8079 12.308C16.8073 12.2423 16.8073 12.1761 16.8073 12.0891Z" fill="white"/>
<path d="M48.4589 18.4136C48.4589 19.9924 48.4589 21.5434 48.4589 23.114C48.3519 23.1261 48.2663 23.1445 48.1808 23.1445C46.7914 23.1463 45.4026 23.1463 44.0133 23.1451C43.9405 23.1451 43.8676 23.1347 43.7814 23.1284C43.7687 23.0611 43.7543 23.0051 43.7491 22.9481C43.7439 22.8894 43.7473 22.8301 43.7473 22.7708C43.7473 17.0503 43.7473 11.3305 43.7468 5.61011C43.7468 5.19484 43.7491 5.24207 44.1278 5.2415C45.1754 5.23919 46.2225 5.24322 47.2702 5.23401C47.4922 5.23228 47.6506 5.30139 47.783 5.47879C47.9281 5.67404 48.0952 5.85258 48.2657 6.05473C48.3415 6.00121 48.4149 5.95453 48.4832 5.90154C49.3134 5.25762 50.2587 4.96273 51.3052 4.98807C51.7365 4.99844 52.1632 5.05661 52.5807 5.17065C53.2531 5.35438 53.7792 5.742 54.181 6.30469C54.6014 6.89335 54.8442 7.55683 55.0096 8.25319C55.2414 9.22999 55.3195 10.2235 55.3449 11.2234C55.3755 12.4254 55.3154 13.6188 55.0524 14.7961C54.8881 15.5304 54.6337 16.2296 54.2192 16.8637C53.541 17.8999 52.5656 18.4499 51.348 18.5956C50.4484 18.7028 49.5551 18.6803 48.6751 18.4367C48.6184 18.4211 48.5583 18.4234 48.4589 18.4136ZM48.4513 12.0562C48.4525 12.0562 48.4537 12.0562 48.4554 12.0562C48.4554 13.0474 48.4548 14.0381 48.456 15.0293C48.4565 15.2545 48.478 15.2798 48.6982 15.3219C48.8584 15.3524 49.0191 15.3853 49.1816 15.3979C49.5349 15.4267 49.8465 15.3294 50.0685 15.0397C50.1529 14.9297 50.2194 14.8024 50.2755 14.6745C50.4912 14.1797 50.5785 13.6545 50.6062 13.1212C50.6582 12.1392 50.6831 11.156 50.6131 10.1728C50.5866 9.79615 50.531 9.42583 50.4408 9.05779C50.3032 8.49625 50.0471 8.43229 49.5718 8.44843C49.5568 8.44903 49.5424 8.45245 49.5273 8.45305C49.2608 8.46397 49.0266 8.57977 48.7873 8.67997C48.4802 8.80783 48.4513 8.84641 48.4513 9.17239C48.4513 10.1337 48.4513 11.095 48.4513 12.0562Z" fill="white"/>
<path d="M68.1105 22.9464C68.1105 21.7911 68.1105 20.6691 68.1105 19.5212C68.2925 19.5517 68.4579 19.5817 68.6239 19.6076C69.2394 19.7032 69.8537 19.815 70.4728 19.8858C70.7558 19.918 71.0502 19.8806 71.3373 19.853C71.5564 19.8316 71.7164 19.6923 71.8376 19.5149C72.0448 19.2125 72.1164 18.8652 72.1528 18.5098C72.16 18.4407 72.1302 18.3653 72.1057 18.2962C70.8651 14.8122 69.6239 11.3288 68.3827 7.84543C68.1099 7.07941 67.8352 6.31339 67.5618 5.54677C67.5319 5.46441 67.5099 5.37974 67.4758 5.26915C67.5564 5.25821 67.6185 5.24208 67.68 5.24208C69.2478 5.24093 70.8149 5.24093 72.3827 5.24208C72.44 5.24208 72.4985 5.2536 72.5755 5.26166C72.674 5.85663 72.7719 6.44641 72.8693 7.03561C72.9666 7.62655 73.0615 8.21803 73.1582 8.80897C73.2543 9.39241 73.3534 9.97585 73.449 10.5593C73.5463 11.1502 73.64 11.7418 73.7391 12.3327C73.8364 12.9179 73.9218 13.5059 74.037 14.0877C74.0561 14.0871 74.0758 14.0865 74.0949 14.0859C74.111 14.0254 74.1355 13.9661 74.1433 13.9045C74.2221 13.2214 74.2991 12.5377 74.3755 11.8546C74.4597 11.0979 74.5427 10.3405 74.6263 9.58363C74.7063 8.86315 74.7857 8.14315 74.8657 7.42267C74.9403 6.75397 75.0137 6.08473 75.0902 5.4166C75.1081 5.26109 75.1308 5.24323 75.311 5.24208C75.9128 5.2392 76.514 5.23862 77.1158 5.23805C77.9851 5.23747 78.8543 5.23805 79.7236 5.23805C79.8036 5.23805 79.883 5.23805 79.9994 5.23805C79.9689 5.4045 79.9522 5.54216 79.917 5.67405C79.4621 7.38925 79.0048 9.10387 78.5481 10.8185C77.791 13.662 77.0352 16.5061 76.2764 19.349C76.0931 20.0367 75.8567 20.7054 75.5093 21.3309C75.0794 22.1038 74.4979 22.7161 73.6663 23.064C73.1737 23.2696 72.6567 23.3623 72.1272 23.3888C71.1881 23.436 70.2579 23.3375 69.3325 23.1912C68.9958 23.1382 68.6615 23.0697 68.326 23.0058C68.2549 22.992 68.1857 22.9672 68.1105 22.9464Z" fill="white"/>
<path d="M9.27098 4.77513C9.15248 4.75093 9.05821 4.73596 8.96633 4.71234C8.12334 4.49751 7.27457 4.31896 6.40095 4.2942C6.19397 4.28844 5.98466 4.30168 5.77942 4.3276C4.97055 4.4307 4.6092 5.03661 4.64562 5.79226C4.66759 6.25072 4.8503 6.6424 5.20934 6.93268C5.75629 7.37614 6.31075 7.81042 6.86985 8.23894C7.33469 8.59546 7.81457 8.93182 8.22394 9.35572C9.01833 10.1793 9.46758 11.1654 9.62716 12.2891C9.76478 13.2578 9.74221 14.2226 9.52191 15.1775C9.12937 16.8777 8.05857 17.9231 6.38185 18.3717C5.52907 18.6004 4.65661 18.6638 3.77778 18.6586C2.6966 18.6522 1.6293 18.5353 0.586275 18.241C0.431325 18.1973 0.282735 18.1322 0.130675 18.0768C0.123737 17.9225 0.111596 17.7681 0.111017 17.6138C0.109283 16.6744 0.109861 15.7344 0.109861 14.7951C0.109861 14.715 0.109861 14.6355 0.109861 14.5261C0.333614 14.5664 0.52788 14.601 0.722722 14.6361C1.44544 14.7674 2.167 14.9028 2.89029 15.0295C3.25396 15.0928 3.61764 15.0588 3.97321 14.9719C4.84451 14.7582 5.26196 13.8971 4.89308 13.0805C4.73466 12.7297 4.48547 12.444 4.19638 12.1969C3.78473 11.8456 3.35919 11.5109 2.94464 11.1625C2.49656 10.7858 2.03402 10.4229 1.61427 10.0158C0.557945 8.99056 0.0427931 7.72348 0.00405552 6.25936C-0.0138678 5.58377 0.0231352 4.91335 0.205838 4.25791C0.621546 2.76733 1.57206 1.76344 3.01055 1.20592C3.73038 0.927152 4.47911 0.787196 5.24866 0.758972C6.50448 0.713474 7.7394 0.843638 8.94663 1.20189C9.01779 1.22319 9.0883 1.24508 9.1594 1.26754C9.23922 1.29289 9.28197 1.34645 9.28257 1.43169C9.28316 1.48353 9.2849 1.53537 9.2849 1.5872C9.2849 2.56402 9.28543 3.54085 9.2843 4.51767C9.2849 4.59658 9.27678 4.67548 9.27098 4.77513Z" fill="white"/>
<path d="M57.681 5.7553C57.87 5.69771 58.0302 5.64356 58.1938 5.59979C59.4086 5.27265 60.643 5.07106 61.9015 5.00713C62.7749 4.96279 63.6394 4.98812 64.489 5.20238C64.8036 5.28187 65.1194 5.38266 65.412 5.52146C66.2442 5.91887 66.72 6.61003 66.9535 7.48147C67.0884 7.98481 67.1367 8.49919 67.1361 9.01927V18.3808L63.4902 18.412C63.3033 18.4125 63.1672 18.3394 63.0543 18.1925C62.8794 17.9644 62.6926 17.745 62.5111 17.5221C62.4842 17.5129 62.4579 17.5037 62.4311 17.4945C62.3845 17.5613 62.3457 17.6356 62.2902 17.6943C61.7242 18.2956 61.0215 18.6066 60.1982 18.6453C59.7 18.6688 59.2044 18.6493 58.717 18.5237C57.733 18.2697 57.0583 17.6701 56.6738 16.7377C56.4888 16.289 56.3829 15.8208 56.3355 15.3409C56.265 14.6245 56.2621 13.9097 56.4003 13.1973C56.7004 11.6514 57.6029 10.6458 59.1073 10.1712C59.8078 9.95059 60.5278 9.86935 61.2591 9.86419C61.5487 9.86245 61.8388 9.86473 62.1284 9.86305C62.2155 9.86245 62.3027 9.85381 62.4191 9.84691C62.4257 9.52549 62.4687 9.21739 62.3726 8.91613C62.3009 8.69095 62.1242 8.55961 61.9009 8.52163C61.6543 8.47957 61.4 8.44675 61.1505 8.45599C60.234 8.48935 59.3409 8.68057 58.4523 8.89255C58.2718 8.93575 58.0926 8.98297 57.9123 9.02557C57.8561 9.03883 57.7977 9.04111 57.7145 9.05209L57.681 5.7553ZM62.4323 12.0891C62.1737 12.0344 61.9487 12.0736 61.7236 12.1098C61.3146 12.1755 61.0567 12.4093 60.9481 12.8062C60.9266 12.8845 60.9099 12.964 60.8949 13.044C60.7821 13.6304 60.7851 14.2201 60.8603 14.8093C60.8824 14.9827 60.9296 15.159 60.9994 15.3196C61.1493 15.6646 61.4723 15.838 61.846 15.7983C61.9272 15.7896 62.0078 15.7758 62.0872 15.7568C62.409 15.6802 62.4317 15.652 62.4323 15.3237C62.4329 14.3187 62.4329 13.3136 62.4329 12.308C62.4323 12.2423 62.4323 12.1761 62.4323 12.0891Z" fill="white"/>
<path d="M42.3094 13.3613C40.1708 13.3613 38.0639 13.3613 35.9593 13.3613C35.8547 13.59 35.8853 13.8042 35.9316 14.0121C36.049 14.5374 36.3351 14.9008 36.8942 15.0235C37.4915 15.1542 38.0916 15.1571 38.6889 15.0777C39.5637 14.9607 40.4338 14.8075 41.3063 14.6704C41.4005 14.6554 41.4954 14.6457 41.5873 14.6341C41.641 14.8047 41.6619 17.4276 41.6162 17.9827C41.5508 18.0093 41.4786 18.045 41.4028 18.0691C39.8562 18.5628 38.2703 18.7373 36.6532 18.6284C36.0004 18.5847 35.354 18.4948 34.7267 18.2973C33.3529 17.8641 32.3926 16.9835 31.8335 15.6628C31.5577 15.0103 31.4016 14.3277 31.3068 13.6285C31.1871 12.745 31.1831 11.8569 31.227 10.9693C31.2727 10.0495 31.423 9.14701 31.7485 8.27905C32.4065 6.52063 33.6588 5.46605 35.5101 5.12336C36.5815 4.92466 37.6517 4.92293 38.7149 5.18556C39.9649 5.49428 40.8761 6.22861 41.4659 7.36501C41.8457 8.09647 42.0458 8.88205 42.1707 9.69013C42.284 10.4239 42.3158 11.1617 42.3106 11.9029C42.3065 12.3758 42.3094 12.8493 42.3094 13.3613ZM37.9084 10.8306C37.9222 10.7868 37.9344 10.766 37.9338 10.7453C37.9222 10.1613 37.9205 9.57667 37.8921 8.99323C37.8783 8.70583 37.7991 8.42419 37.6748 8.15983C37.5852 7.96861 37.447 7.82575 37.2377 7.77853C36.9029 7.70305 36.4253 7.76065 36.1958 8.22199C36.1172 8.37925 36.0542 8.54917 36.0154 8.72077C35.8744 9.34627 35.8813 9.98443 35.8865 10.6209C35.8882 10.8322 35.8998 10.8432 36.1184 10.8438C36.6607 10.8455 37.203 10.8444 37.7459 10.8438C37.7967 10.8438 37.8482 10.8357 37.9084 10.8306Z" fill="white"/>
<path d="M32.2465 3.53725C31.9944 3.49866 31.7771 3.45777 31.5574 3.433C31.0191 3.37195 30.4808 3.30802 29.9414 3.26482C29.1591 3.20262 28.9041 3.69506 28.8885 4.25662C28.8799 4.56649 28.8868 4.87635 28.8868 5.20868C29.0047 5.21905 29.1059 5.23517 29.2071 5.23575C29.8315 5.23921 30.4554 5.23921 31.0798 5.24036C31.1677 5.24036 31.255 5.24036 31.381 5.24036C31.1729 6.24312 30.9711 7.2159 30.7658 8.20656C30.1443 8.20656 29.5378 8.20656 28.9041 8.20656C28.8978 8.34996 28.8868 8.4732 28.8868 8.5959C28.8856 10.8242 28.8862 13.052 28.8862 15.2804C28.8862 16.1686 28.8862 17.0573 28.8862 17.9454C28.8862 18.0779 28.8862 18.2098 28.8862 18.3146C28.8579 18.348 28.8538 18.3544 28.848 18.3589C28.8428 18.3635 28.8365 18.3688 28.8295 18.3699C28.7931 18.3757 28.7567 18.3843 28.7197 18.3843C27.2482 18.3848 25.7773 18.3843 24.3059 18.3832C24.277 18.3832 24.2481 18.3733 24.1926 18.3641C24.1874 18.2351 24.1781 18.1043 24.1781 17.9742C24.177 16.0793 24.1775 14.1844 24.1775 12.2889C24.1775 11.0305 24.1775 9.77202 24.1775 8.51352C24.1775 8.42658 24.1775 8.33958 24.1775 8.23362C23.6011 8.16564 23.0437 8.23536 22.4968 8.1933C22.4147 7.9773 22.3823 5.85663 22.4511 5.25764C22.5234 5.25245 22.6015 5.24151 22.6795 5.24093C23.0883 5.23805 23.4971 5.23921 23.9052 5.23575C23.9845 5.23517 24.0636 5.22365 24.1585 5.21617C24.1654 5.09637 24.1741 4.99442 24.1764 4.89305C24.1891 4.39773 24.188 3.90125 24.2163 3.40708C24.2434 2.93883 24.366 2.48843 24.558 2.05877C24.9731 1.13147 25.7062 0.573374 26.6574 0.270996C27.3303 0.0567397 28.0236 0.0049035 28.7249 0.000295842C29.8315 -0.00776754 30.9156 0.149469 31.9858 0.414409C32.0708 0.43572 32.1535 0.468549 32.2442 0.497923C32.2466 1.50585 32.2465 2.50168 32.2465 3.53725Z" fill="white"/>
</svg>
